<svg xmlns="http://www.w3.org/2000/svg" viewBox="0 0 600 16" shape-rendering="crispEdges">
  <!-- pixel dotted line -->
  <rect x="60" y="6" width="8" height="4" fill="#533483" opacity="0.6"/>
  <rect x="80" y="6" width="8" height="4" fill="#e94560" opacity="0.4"/>
  <rect x="100" y="6" width="8" height="4" fill="#533483" opacity="0.6"/>
  <rect x="120" y="6" width="4" height="4" fill="#ffd700" opacity="0.5"/>
  <rect x="140" y="6" width="8" height="4" fill="#533483" opacity="0.6"/>
  <rect x="160" y="6" width="8" height="4" fill="#e94560" opacity="0.4"/>
  <rect x="180" y="6" width="8" height="4" fill="#533483" opacity="0.6"/>

  <rect x="240" y="4" width="4" height="4" fill="#e94560" opacity="0.5"/>
  <rect x="244" y="4" width="4" height="4" fill="#ffd700" opacity="0.6"/>
  <rect x="248" y="4" width="4" height="4" fill="#e94560" opacity="0.5"/>
  <rect x="240" y="8" width="4" height="4" fill="#ffd700" opacity="0.6"/>
  <rect x="244" y="8" width="4" height="4" fill="#e94560" opacity="0.5"/>
  <rect x="248" y="8" width="4" height="4" fill="#ffd700" opacity="0.6"/>

  <rect x="310" y="6" width="8" height="4" fill="#533483" opacity="0.6"/>
  <rect x="330" y="6" width="8" height="4" fill="#e94560" opacity="0.4"/>
  <rect x="350" y="6" width="8" height="4" fill="#533483" opacity="0.6"/>
  <rect x="370" y="6" width="4" height="4" fill="#ffd700" opacity="0.5"/>
  <rect x="390" y="6" width="8" height="4" fill="#533483" opacity="0.6"/>
  <rect x="410" y="6" width="8" height="4" fill="#e94560" opacity="0.4"/>
  <rect x="430" y="6" width="8" height="4" fill="#533483" opacity="0.6"/>
</svg>
