<svg xmlns="http://www.w3.org/2000/svg" viewBox="0 0 840 320" shape-rendering="crispEdges">
  <rect width="840" height="320" fill="#1a1a2e"/>

  <!-- stars -->
  <rect x="80" y="30" width="4" height="4" fill="#e0e0e0" opacity="0.8"/>
  <rect x="200" y="55" width="3" height="3" fill="#e0e0e0" opacity="0.5"/>
  <rect x="350" y="20" width="4" height="4" fill="#e0e0e0" opacity="0.7"/>
  <rect x="500" y="45" width="3" height="3" fill="#e0e0e0" opacity="0.6"/>
  <rect x="650" y="25" width="4" height="4" fill="#e0e0e0" opacity="0.8"/>
  <rect x="750" y="60" width="3" height="3" fill="#e0e0e0" opacity="0.5"/>
  <rect x="130" y="70" width="3" height="3" fill="#e0e0e0" opacity="0.4"/>
  <rect x="450" y="65" width="3" height="3" fill="#e0e0e0" opacity="0.6"/>
  <rect x="580" y="15" width="4" height="4" fill="#e0e0e0" opacity="0.7"/>
  <rect x="300" y="75" width="3" height="3" fill="#e0e0e0" opacity="0.3"/>

  <!-- twinkling star (cross shape) -->
  <rect x="720" y="38" width="4" height="4" fill="#ffd700"/>
  <rect x="716" y="42" width="4" height="4" fill="#ffd700"/>
  <rect x="724" y="42" width="4" height="4" fill="#ffd700"/>
  <rect x="720" y="46" width="4" height="4" fill="#ffd700"/>

  <!-- moon -->
  <rect x="740" y="70" width="8" height="8" fill="#ffd700" opacity="0.9"/>
  <rect x="748" y="70" width="8" height="8" fill="#ffd700" opacity="0.9"/>
  <rect x="732" y="78" width="8" height="8" fill="#ffd700" opacity="0.9"/>
  <rect x="740" y="78" width="8" height="8" fill="#ffd700" opacity="0.9"/>
  <rect x="748" y="78" width="8" height="8" fill="#ffd700" opacity="0.9"/>
  <rect x="756" y="78" width="8" height="8" fill="#ffd700" opacity="0.9"/>
  <rect x="732" y="86" width="8" height="8" fill="#ffd700" opacity="0.9"/>
  <rect x="740" y="86" width="8" height="8" fill="#ffd700" opacity="0.9"/>
  <rect x="748" y="86" width="8" height="8" fill="#ffd700" opacity="0.9"/>
  <rect x="740" y="94" width="8" height="8" fill="#ffd700" opacity="0.9"/>
  <rect x="748" y="94" width="8" height="8" fill="#ffd700" opacity="0.9"/>
  <!-- moon shadow -->
  <rect x="748" y="70" width="8" height="8" fill="#1a1a2e"/>
  <rect x="756" y="78" width="8" height="8" fill="#1a1a2e"/>
  <rect x="748" y="86" width="8" height="8" fill="#1a1a2e"/>
  <rect x="748" y="94" width="8" height="8" fill="#1a1a2e"/>

  <!-- pixel text: RICKY  (each letter ~40px wide, 48px tall, 8px pixel size) -->
  <!-- R -->
  <rect x="200" y="110" width="8" height="48" fill="#e94560"/>
  <rect x="208" y="110" width="8" height="8" fill="#e94560"/>
  <rect x="216" y="110" width="8" height="8" fill="#e94560"/>
  <rect x="224" y="118" width="8" height="8" fill="#e94560"/>
  <rect x="224" y="126" width="8" height="8" fill="#e94560"/>
  <rect x="208" y="134" width="8" height="8" fill="#e94560"/>
  <rect x="216" y="134" width="8" height="8" fill="#e94560"/>
  <rect x="216" y="142" width="8" height="8" fill="#e94560"/>
  <rect x="224" y="150" width="8" height="8" fill="#e94560"/>

  <!-- I -->
  <rect x="248" y="110" width="8" height="8" fill="#e94560"/>
  <rect x="256" y="110" width="8" height="8" fill="#e94560"/>
  <rect x="264" y="110" width="8" height="8" fill="#e94560"/>
  <rect x="256" y="118" width="8" height="40" fill="#e94560"/>
  <rect x="248" y="150" width="8" height="8" fill="#e94560"/>
  <rect x="264" y="150" width="8" height="8" fill="#e94560"/>

  <!-- C -->
  <rect x="288" y="118" width="8" height="32" fill="#e94560"/>
  <rect x="296" y="110" width="8" height="8" fill="#e94560"/>
  <rect x="304" y="110" width="8" height="8" fill="#e94560"/>
  <rect x="312" y="118" width="8" height="8" fill="#e94560"/>
  <rect x="296" y="150" width="8" height="8" fill="#e94560"/>
  <rect x="304" y="150" width="8" height="8" fill="#e94560"/>
  <rect x="312" y="142" width="8" height="8" fill="#e94560"/>

  <!-- K -->
  <rect x="336" y="110" width="8" height="48" fill="#e94560"/>
  <rect x="360" y="110" width="8" height="8" fill="#e94560"/>
  <rect x="352" y="118" width="8" height="8" fill="#e94560"/>
  <rect x="344" y="126" width="8" height="16" fill="#e94560"/>
  <rect x="352" y="142" width="8" height="8" fill="#e94560"/>
  <rect x="360" y="150" width="8" height="8" fill="#e94560"/>

  <!-- Y -->
  <rect x="384" y="110" width="8" height="8" fill="#e94560"/>
  <rect x="416" y="110" width="8" height="8" fill="#e94560"/>
  <rect x="392" y="118" width="8" height="8" fill="#e94560"/>
  <rect x="408" y="118" width="8" height="8" fill="#e94560"/>
  <rect x="400" y="126" width="8" height="8" fill="#e94560"/>
  <rect x="400" y="134" width="8" height="24" fill="#e94560"/>

  <!-- subtitle: pixel text "MATH x CODE" in smaller 4px pixels -->
  <text x="260" y="185" font-family="'Courier New', monospace" font-size="14" fill="#0f3460" letter-spacing="6" font-weight="bold">MATH × CODE</text>

  <!-- ground / grass -->
  <rect x="0" y="260" width="840" height="60" fill="#16213e"/>
  <rect x="0" y="256" width="840" height="8" fill="#533483"/>
  <!-- grass tufts -->
  <rect x="40" y="248" width="8" height="8" fill="#533483"/>
  <rect x="120" y="248" width="8" height="8" fill="#533483"/>
  <rect x="250" y="248" width="8" height="8" fill="#533483"/>
  <rect x="400" y="248" width="8" height="8" fill="#533483"/>
  <rect x="550" y="248" width="8" height="8" fill="#533483"/>
  <rect x="700" y="248" width="8" height="8" fill="#533483"/>
  <rect x="780" y="248" width="8" height="8" fill="#533483"/>

  <!-- pixel snake (Beatrix!) crawling on ground -->
  <!-- body -->
  <rect x="80" y="240" width="8" height="8" fill="#2ecc71"/>
  <rect x="88" y="240" width="8" height="8" fill="#27ae60"/>
  <rect x="96" y="232" width="8" height="8" fill="#2ecc71"/>
  <rect x="104" y="232" width="8" height="8" fill="#27ae60"/>
  <rect x="112" y="240" width="8" height="8" fill="#2ecc71"/>
  <rect x="120" y="240" width="8" height="8" fill="#27ae60"/>
  <rect x="128" y="240" width="8" height="8" fill="#2ecc71"/>
  <rect x="136" y="232" width="8" height="8" fill="#27ae60"/>
  <rect x="144" y="232" width="8" height="8" fill="#2ecc71"/>
  <rect x="152" y="240" width="8" height="8" fill="#27ae60"/>
  <!-- head -->
  <rect x="160" y="240" width="8" height="8" fill="#2ecc71"/>
  <rect x="168" y="236" width="8" height="8" fill="#2ecc71"/>
  <!-- eye -->
  <rect x="170" y="236" width="3" height="3" fill="#e94560"/>
  <!-- tongue -->
  <rect x="176" y="238" width="6" height="2" fill="#e94560"/>
  <rect x="182" y="236" width="2" height="2" fill="#e94560"/>
  <rect x="182" y="240" width="2" height="2" fill="#e94560"/>

  <!-- pixel character (player) standing on ground -->
  <!-- head -->
  <rect x="618" y="212" width="8" height="8" fill="#ffd700"/>
  <rect x="626" y="212" width="8" height="8" fill="#ffd700"/>
  <rect x="614" y="220" width="8" height="8" fill="#ffd700"/>
  <rect x="622" y="220" width="8" height="8" fill="#ffd700"/>
  <rect x="630" y="220" width="8" height="8" fill="#ffd700"/>
  <!-- eyes -->
  <rect x="617" y="222" width="3" height="3" fill="#1a1a2e"/>
  <rect x="629" y="222" width="3" height="3" fill="#1a1a2e"/>
  <!-- body -->
  <rect x="614" y="228" width="8" height="8" fill="#e94560"/>
  <rect x="622" y="228" width="8" height="8" fill="#e94560"/>
  <rect x="630" y="228" width="8" height="8" fill="#e94560"/>
  <rect x="610" y="236" width="8" height="8" fill="#e94560"/>
  <rect x="634" y="236" width="8" height="8" fill="#e94560"/>
  <!-- legs -->
  <rect x="614" y="244" width="8" height="8" fill="#0f3460"/>
  <rect x="630" y="244" width="8" height="8" fill="#0f3460"/>

  <!-- floating coins -->
  <rect x="500" y="200" width="8" height="8" fill="#ffd700"/>
  <rect x="520" y="192" width="8" height="8" fill="#ffd700"/>
  <rect x="540" y="200" width="8" height="8" fill="#ffd700"/>

  <!-- pixel heart -->
  <rect x="440" y="210" width="8" height="8" fill="#e94560"/>
  <rect x="456" y="210" width="8" height="8" fill="#e94560"/>
  <rect x="432" y="218" width="8" height="8" fill="#e94560"/>
  <rect x="440" y="218" width="8" height="8" fill="#e94560"/>
  <rect x="448" y="218" width="8" height="8" fill="#e94560"/>
  <rect x="456" y="218" width="8" height="8" fill="#e94560"/>
  <rect x="464" y="218" width="8" height="8" fill="#e94560"/>
  <rect x="440" y="226" width="8" height="8" fill="#e94560"/>
  <rect x="448" y="226" width="8" height="8" fill="#e94560"/>
  <rect x="456" y="226" width="8" height="8" fill="#e94560"/>
  <rect x="448" y="234" width="8" height="8" fill="#e94560"/>

  <!-- HP bar -->
  <rect x="30" y="18" width="100" height="4" fill="#16213e"/>
  <rect x="30" y="18" width="72" height="4" fill="#e94560"/>
  <text x="30" y="14" font-family="'Courier New', monospace" font-size="9" fill="#e0e0e0" opacity="0.7">HP</text>

  <!-- EXP bar -->
  <rect x="30" y="30" width="100" height="4" fill="#16213e"/>
  <rect x="30" y="30" width="55" height="4" fill="#ffd700"/>
  <text x="30" y="42" font-family="'Courier New', monospace" font-size="9" fill="#e0e0e0" opacity="0.7">EXP</text>
</svg>
